<svg width="16" height="20" viewBox="0 0 16 20" fill="none" xmlns="http://www.w3.org/2000/svg">
<path d="M15.5004 13.9863C14.8276 13.2078 13.5688 12.0366 13.5688 8.20039C13.5688 5.28664 11.6718 2.95414 9.11378 2.38189V1.60039C9.11378 0.937766 8.61514 0.400391 8.00019 0.400391C7.38525 0.400391 6.88661 0.937766 6.88661 1.60039V2.38189C4.32863 2.95414 2.43157 5.28664 2.43157 8.20039C2.43157 12.0366 1.17278 13.2078 0.500031 13.9863C0.291103 14.2281 0.198478 14.5173 0.200219 14.8004C0.20405 15.4154 0.6522 16.0004 1.31798 16.0004H14.6824C15.3482 16.0004 15.7967 15.4154 15.8002 14.8004C15.8019 14.5173 15.7093 14.2278 15.5004 13.9863ZM2.5517 14.2004C3.29061 13.1515 4.09847 11.413 4.1023 8.22214C4.1023 8.21464 4.10021 8.20789 4.10021 8.20039C4.10021 5.88064 5.84615 4.00039 8.00019 4.00039C10.1542 4.00039 11.9002 5.88064 11.9002 8.20039C11.9002 8.20789 11.8981 8.21464 11.8981 8.22214C11.9019 11.4134 12.7098 13.1519 13.4487 14.2004H2.5517ZM8.00019 19.6004C9.23008 19.6004 10.2277 18.526 10.2277 17.2004H5.77267C5.77267 18.526 6.77031 19.6004 8.00019 19.6004Z" fill="#333333"/>
</svg>
