<svg width="48" height="48" viewBox="0 0 48 48" fill="none" xmlns="http://www.w3.org/2000/svg">
<g opacity="0.7">
<path fill-rule="evenodd" clip-rule="evenodd" d="M8.60302 12.8854C8.88896 12.3607 9.44655 12.0004 10.0799 12.0004H37.9199C38.5532 12.0004 39.1108 12.3607 39.3968 12.8854L24 23.6632L8.60302 12.8854ZM4.79991 13.6597C4.79979 13.6711 4.79977 13.6824 4.79987 13.6937V34.5604C4.79987 37.4685 7.17175 39.8404 10.0799 39.8404H37.9199C40.828 39.8404 43.1999 37.4685 43.1999 34.5604C43.1999 32.2381 43.2071 29.9155 43.2144 27.5928C43.2289 22.9558 43.2434 18.3183 43.2001 13.6825C43.2001 13.6688 43.2 13.655 43.1997 13.6413C43.1997 13.6381 43.1997 13.6349 43.1996 13.6317C43.1729 10.7969 40.8114 8.40039 37.9199 8.40039H10.0799C7.17864 8.40039 4.8111 10.7611 4.79991 13.6597ZM39.5999 17.1376V34.5604C39.5999 35.4803 38.8398 36.2404 37.9199 36.2404H10.0799C9.15998 36.2404 8.39987 35.4803 8.39987 34.5604V17.1375L22.9677 27.335C23.5875 27.7689 24.4124 27.7689 25.0322 27.335L39.5999 17.1376Z" fill="white"/>
</g>
</svg>
