<svg width="24" height="24" viewBox="0 0 24 24" fill="none" xmlns="http://www.w3.org/2000/svg">
<path fill-rule="evenodd" clip-rule="evenodd" d="M2.77148 8.12633C1.8872 9.58021 2.73201 11.0821 3.75069 11.64L3.95976 11.7541C3.95656 11.8373 3.95443 11.9205 3.95336 12.0005C3.95443 12.0805 3.95656 12.1637 3.95976 12.2469L3.75069 12.361C2.73201 12.9189 1.8872 14.4208 2.77148 15.8747L3.95229 17.8139C4.7779 19.1697 6.38646 19.2305 7.36994 18.6918L7.5598 18.5872C7.79661 18.7409 8.04301 18.8838 8.29475 19.0161V19.0523C8.29475 20.3558 9.32409 21.6006 10.8196 21.6006H13.1812C14.6767 21.6006 15.706 20.3558 15.706 19.0523V19.0161C15.9578 18.8838 16.2042 18.7409 16.441 18.5872L16.6308 18.6918C17.6143 19.2305 19.2229 19.1697 20.0485 17.8139L21.2293 15.8747C22.1136 14.4208 21.2688 12.9189 20.2501 12.361L20.041 12.2469C20.0442 12.1637 20.0464 12.0805 20.0474 12.0005C20.0464 11.9205 20.0442 11.8373 20.041 11.7541L20.2501 11.64C21.2688 11.0821 22.1136 9.58021 21.2293 8.12633L20.0485 6.1871C19.2229 4.83135 17.6143 4.77162 16.6308 5.30923L16.441 5.41376C16.2042 5.26016 15.9578 5.11722 15.706 4.98495V4.94869C15.706 3.64521 14.6767 2.40039 13.1812 2.40039H10.8196C9.32409 2.40039 8.29475 3.64521 8.29475 4.94869V4.98495C8.04301 5.11722 7.79661 5.26016 7.5598 5.41376L7.36994 5.30923C6.38646 4.77162 4.7779 4.83135 3.95229 6.1871L2.77148 8.12633ZM7.75714 7.95352L6.34806 7.18125C6.13899 7.06711 5.88085 7.11831 5.77205 7.29752L4.59124 9.23674C4.48244 9.41594 4.5635 9.65274 4.77257 9.76794L6.26166 10.5829C6.14645 11.0362 6.08459 11.512 6.08459 12.0005C6.08459 12.489 6.14645 12.9648 6.26166 13.4181L4.77257 14.2331C4.5635 14.3483 4.48244 14.5851 4.59124 14.7643L5.77205 16.7035C5.88085 16.8827 6.13899 16.9339 6.34806 16.8198L7.75714 16.0475C8.48035 16.7782 9.39663 17.3222 10.426 17.6006V19.0523C10.426 19.2817 10.602 19.4673 10.8196 19.4673H13.1812C13.3988 19.4673 13.5748 19.2817 13.5748 19.0523V17.6006C14.6042 17.3222 15.5204 16.7782 16.2436 16.0475L17.6527 16.8198C17.8618 16.9339 18.1199 16.8827 18.2287 16.7035L19.4095 14.7643C19.5183 14.5851 19.4373 14.3483 19.2282 14.2331L17.7391 13.4181C17.8543 12.9648 17.9162 12.489 17.9162 12.0005C17.9162 11.512 17.8543 11.0362 17.7391 10.5829L19.2282 9.76794C19.4373 9.65274 19.5183 9.41594 19.4095 9.23674L18.2287 7.29752C18.1199 7.11831 17.8618 7.06711 17.6527 7.18125L16.2436 7.95352C15.5204 7.22285 14.6042 6.67884 13.5748 6.4015V4.94869C13.5748 4.71935 13.3988 4.53375 13.1812 4.53375H10.8196C10.602 4.53375 10.426 4.71935 10.426 4.94869V6.4015C9.39663 6.67884 8.48035 7.22285 7.75714 7.95352ZM11.9962 15.2005C13.7616 15.2005 15.192 13.768 15.192 12.0005C15.192 10.233 13.7616 8.80047 11.9962 8.80047C10.2309 8.80047 8.80047 10.233 8.80047 12.0005C8.80047 13.768 10.2309 15.2005 11.9962 15.2005ZM13.2004 12.0004C13.2004 12.6628 12.6635 13.2004 12.0004 13.2004C11.3373 13.2004 10.8004 12.6628 10.8004 12.0004C10.8004 11.338 11.3373 10.8004 12.0004 10.8004C12.6635 10.8004 13.2004 11.338 13.2004 12.0004Z" fill="#333333"/>
</svg>
