<svg width="56" height="56" viewBox="0 0 56 56" fill="none" xmlns="http://www.w3.org/2000/svg">
<path d="M0 25.6306C0 15.76 0 10.8247 2.22172 7.19921C3.46489 5.17054 5.17054 3.46489 7.19921 2.22172C10.8247 0 15.76 0 25.6306 0H30.3694C40.24 0 45.1753 0 48.8008 2.22172C50.8295 3.46489 52.5351 5.17054 53.7783 7.19921C56 10.8247 56 15.76 56 25.6306V30.3694C56 40.24 56 45.1753 53.7783 48.8008C52.5351 50.8295 50.8295 52.5351 48.8008 53.7783C45.1753 56 40.24 56 30.3694 56H25.6306C15.76 56 10.8247 56 7.19921 53.7783C5.17054 52.5351 3.46489 50.8295 2.22172 48.8008C0 45.1753 0 40.24 0 30.3694V25.6306Z" fill="#FFBB5D"/>
<path d="M36.4209 44.0574V37.7695H20.252V44.0574L28.3364 51.2436L36.4209 44.0574Z" fill="#FFD7A3"/>
<path fill-rule="evenodd" clip-rule="evenodd" d="M51.6917 51.475C50.8291 52.3554 49.8587 53.1298 48.8004 53.7783C45.1749 56 40.2396 56 30.369 56H25.6302C15.7597 56 10.8244 56 7.19886 53.7783C6.40786 53.2935 5.66596 52.7385 4.98145 52.1214V50.4964C4.98145 48.829 6.12852 47.3807 7.75164 46.9988L18.8671 44.3834C19.1829 44.309 19.4609 44.1523 19.6849 43.9414L28.3367 49.4471L37.3396 44.1954C37.4841 44.2767 37.6385 44.3438 37.8064 44.3833L48.9219 46.9987C50.5449 47.3805 51.692 48.8289 51.6917 50.4964V51.475Z" fill="#8B63E7"/>
<path d="M20.252 37.7696V44.4039C30.4362 48.0732 36.4209 38.8898 36.4209 38.8898V37.7695H20.252V37.7696Z" fill="#F0C290"/>
<path d="M16.6592 17.1094L17.4419 34.3305C17.515 35.9393 18.3039 37.4313 19.5922 38.3975L23.3063 41.1832C24.2393 41.8828 25.374 42.2611 26.5402 42.2611H30.1333C31.2995 42.2611 32.4342 41.8829 33.3672 41.1832L37.0813 38.3975C38.3696 37.4312 39.1585 35.9394 39.2316 34.3305L40.0143 17.1094C40.0142 17.1094 16.6592 17.1094 16.6592 17.1094Z" fill="#FFE1B2"/>
<path fill-rule="evenodd" clip-rule="evenodd" d="M30.3514 56.0003H26.3223L26.6526 51.2441H30.0211L30.3514 56.0003Z" fill="#5B5D6E"/>
<path d="M30.5822 49.4473H26.0908V51.1379C26.0908 51.6926 26.5404 52.1422 27.0951 52.1422H29.5778C30.1326 52.1422 30.5821 51.6926 30.5821 51.1379V49.4473H30.5822Z" fill="#515262"/>
<path d="M20.1262 42.0578L28.3369 49.4473C28.3369 49.4473 26.0374 50.6081 23.1999 52.9478C22.6145 53.4303 21.7291 53.2349 21.4152 52.5442L17.5576 44.0577L18.778 42.2273C19.0816 41.7714 19.7191 41.6914 20.1262 42.0578Z" fill="white"/>
<path d="M36.5476 42.0578L28.3369 49.4473C28.3369 49.4473 30.6364 50.6081 33.4739 52.9478C34.0593 53.4303 34.9447 53.2349 35.2586 52.5442L39.1162 44.0577L37.8958 42.2273C37.5921 41.7714 36.9546 41.6914 36.5476 42.0578Z" fill="white"/>
<path d="M33.7822 11.1586L34.6243 17.1097C38.4684 17.8786 39.0224 23.9113 39.1022 25.6343C39.1167 25.9471 39.2165 26.249 39.3861 26.512L40.8528 28.7873C40.8528 28.7873 40.3508 25.0257 42.6494 22.4993C42.6495 22.4993 43.4387 7.56549 33.7822 11.1586Z" fill="#4E1E30"/>
<path d="M41.7547 28.4037L40.7407 32.46C40.6205 32.9409 40.1886 33.278 39.6929 33.278C39.1482 33.278 38.6888 32.8725 38.6212 32.332L38.1025 28.1831C37.9637 27.0726 38.8295 26.0918 39.9487 26.0918H39.9495C41.1601 26.0919 42.0483 27.2293 41.7547 28.4037Z" fill="#FFE1B2"/>
<path d="M17.5208 9.54885L18.8494 10.4565C12.8422 14.8917 13.965 22.499 13.965 22.499C15.7615 24.2956 15.7615 28.787 15.7615 28.787L17.558 26.9904C17.558 26.9904 16.8647 21.8007 20.2528 19.8042C23.3968 17.9515 26.1477 18.906 28.9549 18.906C36.4779 18.906 38.5833 16.0707 38.2184 12.618C38.0295 10.8315 35.298 7.10999 28.3374 7.22834C25.5283 7.27607 20.253 8.12661 17.5208 9.54885Z" fill="#66273F"/>
<path d="M16.9967 18.1204C16.9967 18.1204 16.0423 14.3588 18.8494 10.457C12.8422 14.8923 13.965 22.4996 13.965 22.4996C15.7615 24.2961 15.7615 28.7875 15.7615 28.7875L17.558 26.991C17.558 26.991 16.8647 21.8013 20.2528 19.8048C23.3968 17.9521 26.1477 18.9065 28.9549 18.9065C30.1784 18.9065 31.2445 18.8246 32.1942 18.6842C26.4006 18.8783 22.9853 14.4898 16.9967 18.1204Z" fill="#4E1E30"/>
<path d="M14.9198 28.4037L15.9338 32.46C16.054 32.9409 16.4859 33.278 16.9816 33.278C17.5263 33.278 17.9857 32.8725 18.0532 32.332L18.5719 28.1831C18.7107 27.0726 17.8449 26.0918 16.7257 26.0918H16.7249C15.5144 26.0919 14.6262 27.2293 14.9198 28.4037Z" fill="#FFE1B2"/>
</svg>
